<?xml version="1.0" encoding="UTF-8" standalone="no"?>
<!-- Created with Inkscape (http://www.inkscape.org/) -->

<svg
   version="1.1"
   id="svg32"
   width="250"
   height="250"
   viewBox="0 0 250 250"
   xmlns:xlink="http://www.w3.org/1999/xlink"
   xmlns="http://www.w3.org/2000/svg"
   xmlns:svg="http://www.w3.org/2000/svg">
  <defs
     id="defs36">
    <linearGradient
       id="linearGradient24521">
      <stop
         style="stop-color:#02cce2;stop-opacity:1;"
         offset="0.24430946"
         id="stop24517" />
      <stop
         style="stop-color:#02cce2;stop-opacity:0;"
         offset="1"
         id="stop24519" />
    </linearGradient>
    <filter
       height="1.1232669"
       width="1.1178628"
       y="-0.061633438"
       x="-0.058931403"
       style="color-interpolation-filters:sRGB"
       id="filter348">
      <feGaussianBlur
         stdDeviation="4"
         result="result1"
         id="feGaussianBlur326" />
      <feComposite
         in="result1"
         in2="result1"
         result="result4"
         operator="in"
         id="feComposite328" />
      <feGaussianBlur
         stdDeviation="2"
         result="result6"
         in="result4"
         id="feGaussianBlur330" />
      <feComposite
         operator="xor"
         in="result6"
         in2="result4"
         result="result8"
         id="feComposite332" />
      <feComposite
         operator="atop"
         result="fbSourceGraphic"
         in="result4"
         in2="result8"
         id="feComposite334" />
      <feSpecularLighting
         specularExponent="10"
         specularConstant="1.29999995"
         surfaceScale="3"
         lighting-color="#ffffff"
         result="result1"
         in="fbSourceGraphic"
         id="feSpecularLighting338">
        <feDistantLight
           azimuth="235"
           elevation="55"
           id="feDistantLight336" />
      </feSpecularLighting>
      <feComposite
         operator="atop"
         result="result2"
         in="result1"
         in2="fbSourceGraphic"
         id="feComposite340" />
      <feComposite
         k3="1"
         k2="1"
         operator="arithmetic"
         result="result4"
         in="fbSourceGraphic"
         in2="result2"
         id="feComposite342"
         k1="0"
         k4="0" />
      <feComposite
         operator="over"
         in="result4"
         in2="SourceGraphic"
         id="feComposite344" />
      <feBlend
         mode="multiply"
         in2="result2"
         id="feBlend346"
         result="fbSourceGraphic" />
      <feColorMatrix
         result="fbSourceGraphicAlpha"
         in="fbSourceGraphic"
         values="0 0 0 -1 0 0 0 0 -1 0 0 0 0 -1 0 0 0 0 1 0"
         id="feColorMatrix351" />
      <feColorMatrix
         id="feColorMatrix353"
         type="saturate"
         values="0"
         result="result3"
         in="fbSourceGraphic" />
      <feColorMatrix
         id="feColorMatrix355"
         in="fbSourceGraphic"
         values="0 0 0 0 0 0 0 0 0 0 0 0 0 0 0 1 -0.5 -0.5 0 0 "
         result="colormatrix" />
      <feFlood
         id="feFlood357"
         flood-color="rgb(68,0,134)"
         result="result1"
         flood-opacity="1" />
      <feComposite
         in2="colormatrix"
         id="feComposite359"
         operator="in"
         result="result2" />
      <feComposite
         in2="colormatrix"
         id="feComposite361"
         result="result12"
         operator="arithmetic"
         k2="1"
         k3="-0.5"
         k1="0"
         k4="0" />
      <feBlend
         in2="result3"
         id="feBlend363"
         mode="normal"
         in="result12"
         result="result6" />
      <feColorMatrix
         id="feColorMatrix365"
         result="colormatrix"
         values="0 0 0 0 0 0 0 0 0 0 0 0 0 0 0 -0.5 1 -0.5 0 0 "
         in="fbSourceGraphic" />
      <feFlood
         id="feFlood367"
         flood-color="rgb(254,63,0)"
         result="result4"
         flood-opacity="1" />
      <feComposite
         in2="colormatrix"
         id="feComposite369"
         operator="in"
         result="result5" />
      <feComposite
         in2="colormatrix"
         id="feComposite371"
         result="result13"
         operator="arithmetic"
         k2="1"
         k3="-0.5"
         k1="0"
         k4="0" />
      <feBlend
         in2="result6"
         id="feBlend373"
         in="result13"
         mode="normal"
         result="result9" />
      <feColorMatrix
         id="feColorMatrix375"
         in="fbSourceGraphic"
         values="0 0 0 0 0 0 0 0 0 0 0 0 0 0 0 -0.5 -0.5 1 0 0 "
         result="colormatrix" />
      <feFlood
         id="feFlood377"
         flood-color="rgb(255,204,0)"
         result="result7"
         flood-opacity="1" />
      <feComposite
         in2="colormatrix"
         id="feComposite379"
         operator="in"
         result="result8" />
      <feComposite
         in2="colormatrix"
         id="feComposite381"
         result="result14"
         operator="arithmetic"
         k2="1"
         k3="-0.5"
         k1="0"
         k4="0" />
      <feBlend
         in2="result9"
         id="feBlend383"
         mode="normal"
         in="result14"
         result="result10" />
      <feComposite
         in2="fbSourceGraphic"
         id="feComposite385"
         operator="in"
         result="result11"
         in="result10" />
    </filter>
    <linearGradient
       xlink:href="#linearGradient24521"
       id="linearGradient24523"
       x1="12.539131"
       y1="121.52623"
       x2="-426.12119"
       y2="459.09854"
       gradientUnits="userSpaceOnUse"
       gradientTransform="translate(-6.645458,61.342249)" />
  </defs>
  <g
     id="g38"
     transform="translate(-6.645458,-61.342249)">
    <g
       id="g24689">
      <ellipse
         style="opacity:1;fill:url(#linearGradient24523);fill-opacity:1;stroke-width:3;stroke-dasharray:none"
         id="path439"
         cx="-132.31482"
         cy="189.82951"
         rx="117.03279"
         ry="110.18182"
         transform="scale(-1,1)" />
    </g>
    <g
       id="g22686"
       transform="matrix(1.0659393,0,0,1.0384669,-8.7645351,-35.64444)"
       style="display:inline;fill:#fffff6;fill-opacity:1;stroke-width:0.950468">
      <path
         id="rect24194-3"
         style="stroke-width:2.85142"
         transform="matrix(0.9997762,0.02115532,-0.01659978,0.99986221,0,0)"
         d="m 139.21732,222.88863 h 1.48332 c 37.31735,0 56.28315,18.61626 67.35985,33.36047 l 6.42232,8.54876 c 11.07669,14.74421 -78.70402,54.45359 -77.68813,42.55845 0.21165,-2.4782 12.28609,3.42869 5.64945,3.30875 -16.75534,-0.30281 -84.260816,-22.15806 -77.035876,-39.202 l 6.449214,-15.21396 c 8.451878,-19.93833 30.042492,-33.36047 67.359852,-33.36047 z" />
      <rect
         style="opacity:1;fill:#fffff6;fill-opacity:1;stroke-width:2.85165;stroke-dasharray:none"
         id="rect24194"
         width="102.3131"
         height="104.21033"
         x="84.226509"
         y="120.36673"
         ry="44.821968"
         rx="40.780766"
         transform="matrix(0.99954238,0.03024933,-0.0116074,0.99993263,0,0)" />
      <path
         style="fill:#fffff6;fill-opacity:1;stroke-width:0.950468"
         d="M 131.18172,320.44658 C 99.271876,304.52854 57.582127,282.17372 56.933336,280.63319 c -0.146667,-0.34825 -0.720871,-0.63318 -1.276011,-0.63318 -0.555138,0 -1.593736,-0.64575 -2.307994,-1.435 -1.211055,-1.3382 -0.977547,-2.0974 3.461835,-11.25558 5.24293,-10.81585 11.547122,-20.87888 16.71378,-26.67928 4.257917,-4.78019 13.858609,-11.22774 20.115962,-13.50927 l 4.828728,-1.76065 -2.034816,-2.12389 c -1.15648,-1.2071 -2.034816,-3.05951 -2.034816,-4.29141 0,-1.39224 -1.33524,-3.80684 -3.733025,-6.75068 C 83.039691,202.83 80.036611,192.9449 80.013891,177.12797 c -0.02575,-17.93476 4.50368,-29.6182 15.975745,-41.20857 7.739714,-7.81954 14.134344,-11.75733 23.210364,-14.29287 7.45979,-2.08402 19.76583,-2.28087 26.80001,-0.42872 18.93923,4.98684 33.40898,19.58623 38.88981,39.23825 1.44101,5.1669 1.76204,8.32015 1.70672,16.76394 -0.10347,15.78883 -3.67425,27.06491 -11.31229,35.72277 -2.24711,2.54715 -3.28424,4.461 -3.28424,6.06055 0,1.45212 -0.74912,3.04153 -1.97736,4.19541 l -1.97734,1.85762 5.93019,2.57795 c 15.38782,6.68935 23.5482,15.63516 34.81866,38.1699 3.53684,7.07173 6.33504,12.94227 6.21823,13.04563 -0.36789,0.32552 -68.70086,36.00153 -75.43067,39.38165 -5.69868,2.86222 -6.64047,3.11282 -8.4,2.2351 z m 1.61829,-47.24657 c 0,-25.86667 -0.27744,-39.6 -0.8,-39.6 -0.44,0 -0.8,-1.26 -0.8,-2.8 0,-2.57778 -0.19048,-2.8 -2.40001,-2.8 h -2.4 v 41.05485 41.05487 l 2.6,1.29397 c 1.43,0.71169 2.87001,1.317 3.20001,1.34515 0.33,0.0281 0.6,-17.76884 0.6,-39.54884 z m 4.37285,38.25183 2.82715,-1.34817 v -41.05183 -41.05183 h -2.4 c -2.20168,0 -2.4,0.22747 -2.4,2.75278 0,1.51403 -0.36,2.97528 -0.8,3.24722 -0.79429,0.49089 -1.21877,78.8 -0.42715,78.8 0.20507,0 1.64507,-0.60668 3.2,-1.34817 z m -12.96551,-83.50511 c -0.33404,-0.30137 -2.49735,-0.78508 -4.80735,-1.0749 -4.18616,-0.5252 -4.20002,-0.5196 -4.20671,1.70062 -0.006,2.17571 -0.12293,2.23241 -5,2.43622 -12.298678,0.51395 -25.837711,7.53705 -33.245874,17.24562 -6.509009,8.5302 -17.174744,27.0729 -16.108907,28.0058 1.185385,1.03755 25.887094,13.28098 26.187974,12.98011 0.315496,-0.31551 -1.439488,-14.41387 -2.693808,-21.64019 -0.22912,-1.32 2.858544,4.81322 6.86148,13.62939 l 7.278065,16.02939 12.96389,6.46759 12.96389,6.46758 0.20735,-40.84963 c 0.11405,-22.46729 -0.0659,-41.09621 -0.4,-41.3976 z m 40.59266,70.59759 4.4,-2.14431 6.39644,-14.1369 c 3.51804,-7.77529 6.47308,-14.06025 6.56676,-13.96657 0.0937,0.0937 -0.59176,4.74823 -1.5232,10.34347 -0.93144,5.59523 -1.47724,10.38942 -1.2129,10.65376 0.37387,0.37388 24.60879,-11.70891 26.12427,-13.02476 1.33792,-1.16167 -12.20345,-24.2014 -17.98599,-30.60198 -7.06229,-7.8171 -20.75366,-14.27308 -31.10463,-14.66696 -5.19419,-0.19766 -5.25754,-0.22741 -5.25914,-2.47038 -0.002,-2.22041 -0.0763,-2.2587 -3.40161,-1.74156 -6.89808,1.07277 -6.2,-3.66016 -6.2,42.0356 v 40.7159 l 9.4,-4.42549 c 5.17,-2.43403 11.38,-5.39044 13.8,-6.56982 z m -14.95656,-73.78267 c 3.43388,-0.82862 8.11388,-2.50897 10.4,-3.73412 3.7908,-2.03152 4.17117,-2.49118 4.32265,-5.22382 l 0.1661,-2.9963 -4.04281,2.04864 c -7.65858,3.88091 -15.1785,5.34234 -27.48938,5.34234 -12.39504,0 -20.68235,-1.63089 -27.41842,-5.39574 -1.97071,-1.10146 -3.68177,-2.00264 -3.80235,-2.00264 -0.12058,0 -0.21924,1.26592 -0.21924,2.81316 0,2.4822 0.41749,3.05782 3.54864,4.8928 10.58168,6.20128 29.12766,7.9735 44.53481,4.25568 z m -29.23273,-1.53569 c -6.91276,-1.25922 -19.0054,-5.89793 -17.99897,-6.90436 0.20173,-0.20175 2.16991,0.53885 4.37371,1.64576 7.51733,3.77574 13.18979,4.81837 26.21455,4.81837 12.95921,0 18.79452,-1.05448 26.37102,-4.76537 2.18406,-1.06974 4.10986,-1.80614 4.27954,-1.63645 0.58308,0.58308 -7.54198,4.28569 -12.29412,5.60246 -5.50391,1.52508 -25.07481,2.30903 -30.94573,1.23959 z m 30.53008,-5.71311 c 3.30067,-0.84417 6.37427,-1.93638 6.83021,-2.42714 0.60057,-0.64641 0.27064,-0.76141 -1.19738,-0.41733 -11.14185,2.61148 -35.10843,2.63109 -47.14725,0.0386 -3.56613,-0.76795 -0.0752,1.17399 4.62178,2.57103 10.01935,2.98008 25.76692,3.08033 36.89264,0.23485 z m 6.29433,-4.24152 c 6.82795,-1.72104 9.97356,-3.48285 12.98247,-7.27133 5.90951,-7.44057 8.10099,-15.34252 8.09061,-29.17286 -0.0114,-15.14779 -3.72121,-25.02388 -13.12332,-34.93599 -8.9129,-9.39635 -19.38681,-13.93738 -32.18488,-13.95395 -17.33654,-0.0225 -32.63574,9.79729 -40.30991,25.87281 -3.915913,8.20288 -4.893857,12.8616 -4.876209,23.22937 0.02336,13.70748 2.847224,23.22503 8.810409,29.69432 6.11646,6.63557 15.49546,8.55663 39.57571,8.10611 11.07296,-0.20716 17.55051,-0.69016 21.03512,-1.56848 z m -32.09222,-6.91589 c -10.17489,-1.18263 -22.39909,-5.87387 -27.51553,-10.55952 -5.32616,-4.87772 -7.262769,-23.58502 -3.558384,-34.37337 2.1044,-6.12869 4.040656,-8.10431 11.535364,-11.76988 11.55714,-5.65247 28.79037,-7.47312 42.19565,-4.45787 7.64935,1.72058 18.41493,6.84124 21.10559,10.03891 3.30792,3.93123 4.88769,10.38462 4.88769,19.96629 0,9.46747 -1.57659,16.03128 -4.75905,19.81343 -2.39911,2.85117 -9.50141,6.69938 -16.43423,8.90449 -4.60152,1.4636 -17.55055,3.43732 -20.8,3.17038 -0.66,-0.0542 -3.6557,-0.384 -6.6571,-0.73286 z m 23.8571,-2.74324 c 5.70989,-1.51536 14.18356,-5.35211 17.63572,-7.9852 6.5808,-5.01943 8.07296,-27.73121 2.47524,-37.67528 -2.13907,-3.79995 -10.10898,-8.29561 -19.2917,-10.88204 -9.17901,-2.58538 -24.53246,-2.58499 -33.59118,8e-4 -6.84352,1.95352 -14.45105,5.65515 -17.57779,8.55292 -4.39032,4.06881 -6.607184,20.2412 -4.110496,29.98675 0.723976,2.82593 1.933688,6.19411 2.688256,7.48483 2.45876,4.20582 14.42317,9.70564 25.49974,11.72175 5.47888,0.99724 20.58558,0.30459 26.27221,-1.20458 z"
         id="path22684" />
    </g>
    <g
       id="g200"
       transform="translate(-0.49983478,-27.123613)"
       style="display:inline">
      <path
         style="fill:#d8d7d8;stroke-width:1"
         d="m 129.90939,325.24667 c -1.48666,-1.04129 -5.87743,-2.9439 -12.81645,-5.55361 -1.37889,-0.51858 -3.13413,-1.47167 -3.90053,-2.11796 -2.97504,-2.50881 -33.544985,-18.17392 -36.733611,-18.8236 -0.847663,-0.1727 -1.759474,-0.66718 -2.026247,-1.09883 -0.455559,-0.7371 -6.766995,-4.52805 -20.897715,-12.55217 -8.127509,-4.61519 -8.392668,-5.38264 -4.79661,-13.88279 1.586358,-3.74974 4.409222,-9.35865 6.273031,-12.46424 1.86381,-3.10559 3.388744,-5.88829 3.388744,-6.18377 0,-0.29548 1.438451,-2.43454 3.196558,-4.75346 1.758107,-2.31893 3.19821,-4.39623 3.20023,-4.61623 0.0073,-0.79063 10.071246,-10.95684 13.203213,-13.33733 1.76,-1.33771 4.82,-3.32202 6.8,-4.40956 3.148784,-1.72952 3.631464,-2.35141 3.851064,-4.96175 0.204864,-2.43516 -0.236816,-3.54166 -2.4,-6.01245 -1.458088,-1.66543 -3.207736,-3.72298 -3.888112,-4.57232 -1.954064,-2.43933 -6.085618,-13.80157 -7.093023,-19.5066 -1.988074,-11.25863 -0.682524,-29.1559 2.721049,-37.3018 0.672384,-1.60924 2.402718,-4.58466 3.84519,-6.61204 1.442472,-2.02739 3.595328,-5.36324 4.78412,-7.41302 5.428417,-9.35995 16.633589,-17.2581 30.545699,-21.53061 5.72417,-1.75793 17.14434,-3.16794 21.03753,-2.59744 13.55196,1.9859 22.35801,4.93013 26.45363,8.84454 0.58142,0.55571 1.39317,1.01037 1.80387,1.01037 0.74878,0 14.33899,13.31059 14.33899,14.04396 0,0.21469 0.87651,1.73263 1.9478,3.3732 1.07129,1.64056 3.49704,6.76284 5.39054,11.38284 l 2.49317,9.61837 0.72038,12.17534 c 0.28728,4.8555 -0.1702,17.65884 -2.01901,22.72703 -2.98495,8.18274 -5.07039,12.54893 -7.10564,14.87678 -6.46126,7.39016 -6.29453,10.14947 0.19721,12.50437 1.50588,0.54626 2.50583,1.31871 3.70344,2.1429 0.55441,0.38154 1.20071,0.72471 1.66408,1.07129 0.62227,0.46544 0.96458,0.84499 1.51872,1.28393 0.64201,0.50854 0.95803,0.84479 1.49016,1.2 1.11458,0.74402 8.41031,9.43427 14.87694,19.85131 2.81722,4.53821 6.98602,11.11649 9.26402,14.61839 2.278,3.5019 4.75464,8.21209 5.50363,10.46709 l 1.3618,4.10001 -1.90363,1.45836 c -1.04698,0.80209 -4.06361,2.60986 -6.70361,4.01725 -2.64,1.4074 -6.24,3.46385 -8,4.56989 -5.22818,3.28556 -16.59839,8.9177 -18.00311,8.9177 -1.72621,0 -8.82947,3.6772 -14.79689,7.66001 -5.04552,3.36752 -5.38266,3.5377 -16.7312,8.4455 -3.92216,1.69618 -7.75098,3.64486 -8.50849,4.33041 -1.86498,1.68777 -12.55743,6.76408 -14.2475,6.76408 -0.74624,0 -2.09778,-0.519 -3.00343,-1.15334 z m 58.67399,-31.8459 c 15.91735,-8.26349 26.59005,-14.25949 26.6,-14.94406 0.0279,-1.91863 -9.95919,-21.66366 -14.32078,-28.313 -2.25708,-3.44096 -5.78104,-8.04941 -7.83101,-10.24099 -4.56477,-4.88011 -13.77963,-11.14799 -19.31673,-13.13911 -2.26317,-0.81382 -4.11485,-1.71276 -4.11485,-1.99765 0,-0.28488 0.72,-1.16956 1.6,-1.96595 0.8893,-0.80481 1.6,-2.46398 1.6,-3.7353 0,-1.53484 1.22808,-3.79506 3.73302,-6.87046 7.46342,-9.16305 10.66698,-19.86441 10.66698,-35.63255 0,-14.69794 -3.6717,-25.94406 -11.98705,-36.71538 -9.46022,-12.25433 -23.37812,-19.56207 -38.88651,-20.41773 -10.08212,-0.55628 -17.83673,1.018 -26.58645,5.39737 -11.031612,5.5215 -18.811925,13.49622 -24.560341,25.17404 -4.82272,9.79727 -6.31858,17.68757 -5.75334,30.34743 0.644964,14.44544 3.613764,23.38125 10.629508,31.99382 2.385049,2.92789 3.544177,5.11286 3.544177,6.68081 0,1.31397 0.697688,2.96136 1.6,3.77795 0.88,0.79639 1.598648,1.66218 1.597,1.92399 -0.0016,0.2618 -1.711648,1.17477 -3.8,2.02883 -10.845977,4.43558 -20.034507,12.21193 -26.996213,22.84718 -5.02877,7.68234 -14.03277,25.62567 -14.240955,28.37963 -0.152412,2.01618 1.734602,3.09269 40.640168,23.18445 l 40.800006,21.07009 14.4,-7.51632 c 7.92,-4.13399 26.36252,-13.72668 40.98337,-21.31709 z m -60.28084,4.19924 c 0,-5.06 0.1299,-7.13 0.28866,-4.6 0.15876,2.53 0.15876,6.67 0,9.2 -0.15876,2.53 -0.28866,0.46 -0.28866,-4.6 z m 56.49747,-11.55848 c 0,-1.12566 3.3975,-9.23658 3.85748,-9.20901 0.29838,0.0179 1.75626,1.07061 3.23973,2.33941 l 2.6972,2.3069 -4.8972,2.4721 c -2.69347,1.35966 -4.89721,2.30043 -4.89721,2.0906 z m -111.400007,-3.6912 c -3.41,-1.74332 -6.2,-3.49508 -6.2,-3.89278 0,-0.73486 5.835132,-5.65754 6.706195,-5.65754 0.261771,0 1.923983,2.88 3.693805,6.4 1.769822,3.52 2.94384,6.382 2.608928,6.36 -0.33491,-0.022 -3.398928,-1.46635 -6.808928,-3.20968 z m 58.099257,-5.95032 c 0.002,-4.84 0.13357,-6.71686 0.29281,-4.1708 0.15924,2.54607 0.15776,6.50607 -0.003,8.8 -0.16105,2.29394 -0.29134,0.2108 -0.28953,-4.6292 z m 39.70075,2.31695 c -4.51277,-3.3782 -9.70578,-5.36965 -18.4,-7.05615 -3.74,-0.72548 -7.61,-1.49281 -8.6,-1.70518 -1.67476,-0.35924 -1.8,-0.80882 -1.8,-6.4617 v -6.0756 l 3.8,0.53444 c 9.50748,1.33711 22.49496,6.16562 31.19615,11.59815 l 2.59614,1.62089 -2.03892,4.61409 c -1.1214,2.53776 -2.28967,4.84178 -2.59614,5.12004 -0.30648,0.27827 -2.17723,-0.70677 -4.15723,-2.18898 z m -82.644751,-4.83494 c -1.653952,-3.82255 -2.725496,-7.21494 -2.381216,-7.53864 1.973408,-1.85547 23.284437,-7.10469 34.025957,-8.38111 l 4.6,-0.54662 v 6.51728 c 0,4.53564 -0.30405,6.59988 -1,6.78889 -0.55,0.14938 -4.78,1.0658 -9.4,2.03648 -6.96496,1.46338 -11.83804,3.16943 -22.01878,7.70874 -0.450328,0.20079 -2.172017,-2.76247 -3.825961,-6.58502 z M 127.37108,225.886 c -0.86439,-1.05924 3.40892,-1.08599 5.82893,-1.08599 2.42,0 7.23068,-0.0145 6.93172,0.67476 -0.17509,0.40366 -0.18562,1.35185 -6.46363,1.38813 -8.38813,0.0485 -6.01883,-0.636 -6.29702,-0.9769 z m 0.84635,-4.62037 c 0,-0.44 2.54028,-1.32967 4.96029,-1.32516 4.73335,0.009 5.27408,0.76708 5.27408,1.20708 0,0.44 5.85739,1.49356 -5.01566,1.63743 -10.44858,0.13825 -5.21871,-1.07935 -5.21871,-1.51935 z M 128.8,218.40001 c 0,-0.44 1.98,-0.8 4.40001,-0.8 2.42,0 4.4,0.36 4.4,0.8 0,0.44 -1.98,0.8 -4.4,0.8 -2.42001,0 -4.40001,-0.36 -4.40001,-0.8 z m -16.80728,-5.23209 c -8.08849,-1.46563 -11.18732,-2.88251 -14.624108,-6.68664 -6.299529,-6.97282 -8.786761,-15.51703 -8.756705,-30.08128 0.01672,-8.10158 0.34232,-10.59894 2.086032,-16 5.118321,-15.85372 18.145841,-27.91068 33.702061,-31.19126 7.04112,-1.48486 10.55889,-1.48486 17.60001,0 8.78327,1.85226 15.14308,5.39974 22.09116,12.3224 6.42714,6.40361 9.83117,12.02176 12.4274,20.51069 2.00211,6.54631 1.97748,23.51874 -0.044,30.32401 -2.78675,9.38152 -7.61495,16.28812 -12.94276,18.51422 -8.17783,3.41691 -38.00165,4.74082 -51.53909,2.28786 z m 36.80729,-7.60635 c 7.36586,-1.76263 16.78516,-6.01994 20.08131,-9.07631 5.68941,-5.27551 7.745,-23.22758 3.98151,-34.77166 -2.2539,-6.91359 -3.88598,-8.64383 -11.7881,-12.49707 -11.76966,-5.73913 -27.78816,-7.57412 -41.70845,-4.77787 -8.34248,1.6758 -20.713356,7.80368 -23.149916,11.46724 -6.035641,9.07507 -6.039313,29.51946 -0.0072,38.57327 2.291064,3.43859 14.074456,9.52717 21.886756,11.30908 8.21454,1.87366 22.36322,1.7692 30.70381,-0.22668 z m -22.94402,-65.62589 c 4.25318,-0.5016 8.90716,-0.77493 10.34217,-0.6074 2.57887,0.30106 2.60578,0.26963 2.32145,-2.71184 -0.28765,-3.01636 -0.28775,-3.01644 -4.00364,-3.00461 -4.46071,0.0142 -12.81484,1.8936 -16.35563,3.67947 -2.75337,1.38872 -6.96034,5.02334 -6.96034,6.01339 0,0.33294 1.55766,-0.0837 3.46147,-0.92582 1.90381,-0.84215 6.94134,-1.94158 11.19452,-2.44319 z m 31.74402,3.40377 c 0,-1.30426 -7.62352,-7.1826 -8.35994,-6.44617 -0.1705,0.1705 -0.5357,1.20927 -0.81156,2.30836 -0.46227,1.84188 -0.16982,2.10069 3.73498,3.3052 5.24263,1.61717 5.43652,1.64687 5.43652,0.83261 z"
         id="path214" />
      <path
         style="fill:#a1a1a1;stroke-width:1"
         d="m 141.93733,269.32514 c -0.22686,-0.59118 -0.28709,-3.74118 -0.13385,-7 l 0.27861,-5.92513 0.15896,6.53333 c 0.10585,4.35054 0.49306,6.66815 1.15896,6.93684 0.78324,0.31605 0.7778,0.4172 -0.0251,0.46667 -0.56382,0.0347 -1.21072,-0.42053 -1.43758,-1.01171 z m -10.42168,-12.12513 c 0.002,-6.16 0.12683,-8.57425 0.27907,-5.365 0.15224,3.20924 0.15121,8.24924 -0.002,11.2 -0.15335,2.95075 -0.27791,0.325 -0.27667,-5.835 z M 102.25,242.65352 c 0.5775,-0.2311 1.2675,-0.20268 1.53334,0.0631 0.26583,0.26583 -0.20667,0.45491 -1.05,0.42017 -0.93196,-0.0384 -1.12152,-0.22795 -0.48334,-0.48332 z m -6.849996,-19.48547 c -0.99,-1.2216 -1.8,-3.22096 -1.8,-4.44301 0,-1.22205 -0.81,-3.14511 -1.8,-4.27347 l -1.800001,-2.05156 2.200001,1.93944 c 1.483552,1.30786 2.2,2.72396 2.2,4.34844 0,1.37107 0.748176,3.20539 1.736488,4.2574 0.955072,1.01663 1.585072,1.98239 1.4,2.14613 -0.185072,0.16375 -1.146488,-0.70177 -2.136488,-1.92337 z m 36.011006,-0.54211 c 1.21604,-0.18389 3.01604,-0.17897 4,0.0109 0.98395,0.18989 -0.011,0.34034 -2.211,0.33434 -2.2,-0.006 -3.00505,-0.16138 -1.789,-0.34526 z m -3.34785,-4.42593 c -0.054,-1.19623 0.69374,-1.4 5.13685,-1.4 4.4431,0 5.1908,0.20377 5.13684,1.4 -0.0378,0.83635 -0.22561,0.99739 -0.46667,0.4 -0.25201,-0.62456 -2.00538,-1 -4.67017,-1 -2.6648,0 -4.41817,0.37544 -4.67018,1 -0.24106,0.59739 -0.42894,0.43635 -0.46667,-0.4 z m 1.36366,-3.59072 c 2.32475,-0.16212 5.92475,-0.16042 8,0.004 2.07525,0.1642 0.17319,0.29683 -4.22681,0.29475 -4.40001,-0.002 -6.09794,-0.13643 -3.77319,-0.29854 z m 12.02314,-71.15577 c 2e-5,1e-5 2e-5,-6e-5 0,-6e-5 z"
         id="path212" />
      <path
         style="fill:#dc1779;stroke-width:1"
         d="m 101.53673,298.41569 c -2.415038,-1.27667 -3.385606,-2.69996 -6.199998,-9.09207 -1.8352,-4.16814 -3.336728,-7.74169 -3.336728,-7.94121 0,-0.19952 2.278008,-1.48422 5.06224,-2.85489 5.152036,-2.53635 17.042926,-5.99812 23.961636,-6.97593 l 3.82388,-0.54042 -0.22388,10.57076 -0.22388,10.57075 -5.6,1.79045 c -3.08,0.98474 -7.47803,2.75039 -9.7734,3.92366 -2.29537,1.17327 -4.27537,2.11731 -4.4,2.09786 -0.12463,-0.0194 -1.51507,-0.71648 -3.08987,-1.54896 z m 53.06328,-7.45584 -13,-0.77336 v -10.17786 -10.17786 l 6.0609,1.05396 c 12.91248,2.24543 19.63216,4.71927 25.39833,9.35037 l 2.19747,1.76491 -2.21726,5 c -1.72514,3.89024 -2.57485,4.97039 -3.82836,4.8666 -0.88609,-0.0734 -7.46108,-0.4814 -14.61108,-0.90676 z m -36.8448,-87.77913 c -7.46936,-1.9568 -15.09988,-5.37532 -15.77271,-7.06629 -1.00232,-2.51904 -1.3637,-16.47254 -0.48469,-18.71443 1.05144,-2.68164 2.50219,-2.88179 2.50219,-0.3452 0,3.18081 2.2874,9.6376 4.29564,12.12557 l 1.92139,2.38037 -1.07911,-5.58037 c -0.59351,-3.0692 -1.09234,-7.28553 -1.10851,-9.36963 -0.0276,-3.55214 0.13815,-3.85927 2.6482,-4.90804 8.99578,-3.75867 25.29666,-4.91813 36.40059,-2.5891 6.84005,1.43468 16.67994,5.73966 17.76858,7.7738 0.86835,1.62254 0.99632,10.71574 0.22951,16.31016 l -0.5237,3.82087 -5.6763,2.60041 c -3.12196,1.43023 -8.26735,3.18108 -11.43421,3.89079 -8.05162,1.8044 -22.13948,1.64832 -29.68687,-0.32891 z"
         id="path210" />
      <path
         style="fill:#565656;stroke-width:1"
         d="m 129.4,311.10105 -3,-1.53927 v -33.68556 -33.68556 l 2.89912,0.47046 c 1.59453,0.25876 3.03839,0.60973 3.2086,0.77993 0.17021,0.17021 0.21561,15.80968 0.10088,34.75436 l -0.20859,34.4449 z m 2.60001,-34.23561 c 0,-16.24402 -0.21852,-30.10402 -0.4856,-30.8 -0.26707,-0.69599 -1.40263,-1.26543 -2.52345,-1.26543 h -2.03787 l 0.52021,10.2 c 0.28612,5.61 0.52167,19.47 0.52346,30.8 l 0.003,20.6 h 2 2.00001 z m 2.4,0.73457 c 0,-26.9925 0.21533,-34.39765 1,-34.38908 0.55,0.006 1.81,0.228 2.8,0.49331 l 1.8,0.48237 v 32.68616 32.68615 l -2.36028,1.22054 c -1.29815,0.6713 -2.55815,1.22055 -2.8,1.22055 -0.24184,0 -0.43972,-15.48 -0.43972,-34.4 z m -50.125407,10.49625 c -1.9188,-0.98489 -3.359984,-2.99577 -5.999996,-8.37178 -1.911032,-3.89154 -3.735621,-7.23723 -4.054643,-7.43487 -0.31902,-0.19765 -2.223911,1.15592 -4.23309,3.00791 l -3.653053,3.36726 -2.802493,-1.33641 -2.802494,-1.33641 2.611283,-7.33071 c 2.95355,-8.29156 9.252695,-12.02835 19.439814,-19.26419 C 93.843508,241.53869 105.52914,237.15773 117.8,236.26798 l 7,-0.50757 v 10.9198 10.9198 l -3,8e-4 c -5.98173,0.002 -21.10298,3.182 -31.399997,6.60304 -2.86,0.9502 -5.47,1.65298 -5.8,1.56175 -0.840456,-0.23237 -0.799648,0.24833 1.050784,12.37813 0.907928,5.9516 1.537928,10.91724 1.4,11.03479 -0.137928,0.11753 -1.387216,-0.36961 -2.776184,-1.08255 z M 95.600004,249.39195 C 98.240004,248.05278 103.1,245.922 106.4,244.65687 l 6,-2.30023 -6.4,0.28121 c -7.548644,0.33168 -14.574869,3.24971 -20.604445,8.55716 -3.2494,2.86023 -6.995552,7.71434 -6.995552,9.06455 0,0.25888 2.79,-1.53259 6.2,-3.98103 3.41,-2.44845 8.360001,-5.54741 11.000001,-6.88658 z m 83.609226,39.6286 c 0.005,-0.3413 0.84958,-5.57054 1.87666,-11.62054 1.02709,-6.05 1.72421,-11 1.54916,-11 -0.17505,0 -0.6796,1.03647 -1.1212,2.30327 l -0.80292,2.30328 -6.86675,-3.84931 c -7.72169,-4.32859 -19.841,-8.53752 -27.04417,-9.3922 l -4.8,-0.56955 -0.22478,-10.31483 -0.22478,-10.31484 6.22478,0.52017 c 13.50251,1.12831 31.84531,7.22598 42.89016,15.05658 5.98928,4.2463 5.27735,4.79423 10.07379,14.20216 l 4.90058,9.61216 -4.79706,2.42155 c -2.63839,1.33186 -5.25733,2.40692 -5.81988,2.38904 -0.56255,-0.0179 -2.26681,-1.09588 -3.78726,-2.39555 -1.52045,-1.29967 -2.99452,-2.09504 -3.27571,-1.76749 -0.28119,0.32756 -1.33731,2.86224 -2.34695,5.63262 -1.365,3.7455 -2.42252,5.34052 -4.12429,6.22054 -1.25873,0.65092 -2.28445,0.90424 -2.27938,0.56294 z M 120,225.2009 c -6.55185,-1.32141 -13.63918,-3.97217 -16.37573,-6.12473 -2.91422,-2.29233 -1.90077,-2.83336 1.52321,-0.81316 6.01436,3.54856 13.07472,5.11567 24.93089,5.53362 15.044,0.53033 22.77277,-1.0151 34.12164,-6.8229 0.33,-0.16888 0.6,0.0328 0.6,0.44815 0,1.23845 -8.8408,5.55429 -14,6.83442 -7.28406,1.80737 -12.4,2.38198 -12.4,1.39272 0,-0.51161 -2.06652,-0.84901 -5.2,-0.84901 -2.93334,0 -5.20001,0.34872 -5.20001,0.8 0,0.99726 -1.43024,0.92591 -8,-0.39911 z m 49.80816,-2.47568 c 0.7356,-0.88 1.55037,-2.97277 1.97612,-4.46414 l 0.75967,-2.66107 0.2388,2.65256 c 0.18856,2.09453 -0.18929,2.99141 -1.78274,4.62344 -1.63464,1.67421 -2.51874,1.43656 -1.19185,-0.15079 z m -47.02692,-0.31557 c -8.46826,-1.24479 -18.56025,-4.75163 -20.83985,-7.49838 -1.41029,-1.69931 -0.57182,-3.59768 3.13959,-0.75808 3.6109,1.90709 17.58339,6.12754 22.39388,5.75783 5.77969,-0.44419 0.2851,1.33456 0.97857,2.02803 1.46159,1.4616 1.21128,1.48236 -5.67219,0.47052 z m 13.9907,-2.31858 c -0.50496,-0.62331 8.34347,-0.89592 10.36326,-1.1335 2.11317,-0.24858 14.78183,-4.48765 15.77442,-5.29622 1.72173,-1.40254 3.70846,-1.15428 3.31472,0.51432 -0.59674,2.5289 -14.31829,7.35909 -18.43646,7.75543 -3.98647,0.38366 -8.32121,1.48621 -9.3983,0.1567 z M 118,217.97641 c -2.64,-0.58461 -5.7,-1.45709 -6.8,-1.93884 -1.78047,-0.77977 -1.64876,-0.83398 1.2,-0.49387 1.76,0.21013 5.99,0.62841 9.4,0.92952 4.43077,0.39125 6.2,0.85842 6.2,1.63713 0,1.36023 -3.46204,1.31386 -10,-0.13394 z m 20.40001,0.23728 c 0,-0.9076 1.48316,-1.32396 6.2,-1.74047 3.41,-0.30111 7.64,-0.7055 9.4,-0.89865 2.96112,-0.32496 2.85946,-0.23589 -1.36166,1.19307 -2.5089,0.84933 -6.7389,1.79057 -9.4,2.09164 -3.9995,0.45249 -4.83834,0.34056 -4.83834,-0.64559 z m -15.78478,-3.56808 c -81.410263,-125.014665 -40.705132,-62.50733 0,0 z"
         id="path208" />
      <path
         style="fill:#5f144e;stroke-width:1"
         d="m 114.6,304.9699 c -4.95,-2.49544 -9,-4.76123 -9,-5.03509 0,-0.73605 10.15465,-5.2245 15,-6.63014 l 4.2,-1.21842 v 8.75688 c 0,4.81629 -0.27,8.73597 -0.6,8.7104 -0.33,-0.0255 -4.65,-2.08819 -9.6,-4.58363 z m 27.00001,-5.2843 v -9.28559 l 5,0.0462 c 6.91698,0.0638 22.97196,1.25913 23.45933,1.7465 0.22031,0.22031 -0.013,1.3082 -0.51841,2.41752 -0.70064,1.53774 -3.84174,3.37312 -13.22019,7.72475 -6.76565,3.13928 -12.84559,5.91668 -13.51097,6.17201 -1.03687,0.39789 -1.20976,-0.86283 -1.20976,-8.82135 z M 99.3745,195.2245 c -5.27896,-4.40207 -7.243352,-22.95016 -3.562712,-33.63978 1.57156,-4.56424 2.269608,-5.5197 5.591972,-7.65401 17.8398,-11.46045 44.26942,-11.7356 62.68353,-0.65259 3.58175,2.15576 4.74605,3.38904 5.76957,6.11134 3.14544,8.36607 3.76436,17.42816 1.76835,25.89165 -1.50648,6.38773 -2.67143,8.83412 -4.90301,10.29631 l -1.83121,1.19986 0.46882,-8.27873 c 0.66332,-11.71347 0.5158,-12.06661 -6.41649,-15.35874 -3.18979,-1.51482 -8.48694,-3.31783 -11.77146,-4.00669 -11.19467,-2.34783 -27.46745,-1.20206 -36.49425,2.56958 -2.58045,1.07818 -2.67608,1.05308 -2.63552,-0.69196 0.0231,-0.9959 0.50915,-4.42 1.08,-7.6091 0.81663,-4.56212 0.82635,-5.62279 0.0456,-4.97482 -1.57852,1.31006 -4.34429,8.37651 -4.91183,12.54953 -0.28601,2.10301 -1.0818,4.23821 -1.76842,4.74489 -1.56236,1.15292 -2.17619,10.82087 -1.07164,16.87876 0.42118,2.31 0.54492,4.18803 0.275,4.17339 -0.26994,-0.0146 -1.31228,-0.71164 -2.3163,-1.54889 z"
         id="path206" />
      <path
         style="fill:#262626;stroke-width:1"
         d="m 133.60001,273.64722 c 0,-25.23891 0.28429,-39.32849 0.8,-39.64721 0.44,-0.27194 0.8,-1.73319 0.8,-3.24722 0,-2.52531 0.19832,-2.75278 2.4,-2.75278 h 2.4 v 8.03624 8.03626 l -2.81669,-0.52842 -2.74252,-0.33196 0.14252,34.69596 c 0.0788,19.19103 -0.0533,34.89229 -0.38331,34.89216 -0.33,-1.3e-4 -0.6,-17.61899 -0.6,-39.15303 z M 70.745285,257.20001 c 5.086617,-8.0487 9.165584,-12.94048 13.551462,-16.25184 8.202497,-6.19295 16.994603,-9.56749 25.896543,-9.9395 4.88898,-0.2043 4.99343,-0.25565 5,-2.45768 0.006,-2.22048 0.055,-2.24257 3.80671,-1.74028 5.8018,0.77674 5.8,0.77517 5.8,5.04439 v 3.90531 l -7,0.50757 c -15.87536,1.15111 -30.908709,8.25169 -45.36418,21.42651 l -4.724041,4.30552 z m 117.832235,-5.5302 c -10.86003,-7.50343 -27.56737,-13.47785 -40.77751,-14.58175 l -6.2,-0.51809 v -4.23108 c 0,-4.63357 -0.0635,-4.57667 6.2,-5.55076 3.32525,-0.51714 3.40003,-0.47885 3.40161,1.74156 0.002,2.24297 0.065,2.27272 5.25914,2.47038 10.2144,0.38868 24.03974,6.84698 30.89061,14.43007 2.571,2.84579 8.21013,10.58835 7.68707,10.55439 -0.13114,-0.008 -3.03855,-1.95014 -6.46092,-4.31472 z m -59.97752,-9.0428 -2.2,-0.33328 v -7.14686 -7.14686 h 2.4 c 2.20953,0 2.40001,0.22222 2.40001,2.8 0,1.54 0.36,2.8 0.8,2.8 0.44444,0 0.8,2.13333 0.8,4.8 0,3.37059 0.32295,5.06449 -0.37925,4.98032 -0.55,-0.0659 -2.61076,-0.57003 -3.82076,-0.75332 z m 3.61523,-15.9814 c 0.77838,-0.20283 1.85838,-0.18949 2.4,0.0297 0.54162,0.21915 -0.0952,0.3851 -1.41522,0.3688 -1.32,-0.0163 -1.76316,-0.1956 -0.98478,-0.39844 z m -1.12352,-7.28505 c 1.19283,-0.1277 4.01008,-0.12238 5.2122,0.06 1.20212,0.18255 -0.46388,0.33589 -3.1039,0.3314 -2.64001,-0.005 -3.55831,-0.0677 -3.09396,-0.22059 z m 25.13919,-4.01881 c -0.24388,-0.45615 0.25721,-0.94174 0.96911,-0.94174 0.71193,0 1.55417,-0.0783 0.8,0.8 -0.33697,0.39243 -0.63194,0.8 -0.8,0.8 -0.16807,0 -0.47068,0.27403 -0.96911,-0.65826 z M 178.52632,176 c 0,-1.1 0.18158,-1.55 0.40351,-1 0.22193,0.55 0.22193,1.45 0,2 -0.22193,0.55 -0.40351,0.1 -0.40351,-1 z m -70.68578,38.74549 c -0.24388,-0.45615 0.25721,-0.94174 0.96911,-0.94174 0.71193,0 0.66649,-0.0951 1.03559,1.00219 0.30087,0.89442 -0.86753,0.59781 -1.03559,0.59781 -0.16807,0 -0.47068,0.27403 -0.96911,-0.65826 z"
         id="path204" />
      <path
         style="fill:#010101;stroke-width:1"
         d="M 131.18172,320.44658 C 99.271876,304.52854 58.409453,281.41756 56.933336,280.63319 c -0.354895,-0.18858 -1.021528,-0.54519 -1.451918,-0.77173 -0.491242,-0.25857 -1.322946,-0.62628 -2.132087,-1.29645 -1.389981,-1.15125 -0.977547,-2.0974 3.461835,-11.25558 5.24293,-10.81585 11.547122,-20.87888 16.71378,-26.67928 4.257917,-4.78019 13.858609,-11.22774 20.115962,-13.50927 l 4.828728,-1.76065 -2.034816,-2.12389 c -1.15648,-1.2071 -2.034816,-3.05951 -2.034816,-4.29141 0,-1.39224 -1.33524,-3.80684 -3.733025,-6.75068 C 83.039691,202.83 80.036611,192.9449 80.013891,177.12797 c -0.02575,-17.93476 4.50368,-29.6182 15.975745,-41.20857 7.739714,-7.81954 14.134344,-11.75733 23.210364,-14.29287 7.45979,-2.08402 19.76583,-2.28087 26.80001,-0.42872 18.93923,4.98684 33.40898,19.58623 38.88981,39.23825 1.44101,5.1669 1.76204,8.32015 1.70672,16.76394 -0.10347,15.78883 -3.67425,27.06491 -11.31229,35.72277 -2.24711,2.54715 -3.28424,4.461 -3.28424,6.06055 0,1.45212 -0.74912,3.04153 -1.97736,4.19541 l -1.97734,1.85762 5.93019,2.57795 c 15.38782,6.68935 23.5482,15.63516 34.81866,38.1699 3.53684,7.07173 6.33504,12.94227 6.21823,13.04563 -0.36789,0.32552 -68.70086,36.00153 -75.43067,39.38165 -5.69868,2.86222 -6.64047,3.11282 -8.4,2.2351 z m 1.61829,-47.24657 c 0,-25.86667 -0.27744,-39.6 -0.8,-39.6 -0.44,0 -0.8,-1.26 -0.8,-2.8 0,-2.57778 -0.19048,-2.8 -2.40001,-2.8 h -2.4 v 41.05485 41.05487 l 2.6,1.29397 c 1.43,0.71169 2.87001,1.317 3.20001,1.34515 0.33,0.0281 0.6,-17.76884 0.6,-39.54884 z m 4.37285,38.25183 2.82715,-1.34817 v -41.05183 -41.05183 h -2.4 c -2.20168,0 -2.4,0.22747 -2.4,2.75278 0,1.51403 -0.36,2.97528 -0.8,3.24722 -0.79429,0.49089 -1.21877,78.8 -0.42715,78.8 0.20507,0 1.64507,-0.60668 3.2,-1.34817 z m -12.96551,-83.50511 c -0.33404,-0.30137 -2.49735,-0.78508 -4.80735,-1.0749 -4.18616,-0.5252 -4.20002,-0.5196 -4.20671,1.70062 -0.006,2.17571 -0.12293,2.23241 -5,2.43622 -12.298678,0.51395 -25.837711,7.53705 -33.245874,17.24562 -6.509009,8.5302 -17.174744,27.0729 -16.108907,28.0058 1.185385,1.03755 25.887094,13.28098 26.187974,12.98011 0.315496,-0.31551 -1.439488,-14.41387 -2.693808,-21.64019 -0.22912,-1.32 2.858544,4.81322 6.86148,13.62939 l 7.278065,16.02939 12.96389,6.46759 12.96389,6.46758 0.20735,-40.84963 c 0.11405,-22.46729 -0.0659,-41.09621 -0.4,-41.3976 z m 40.59266,70.59759 4.4,-2.14431 6.39644,-14.1369 c 3.51804,-7.77529 6.47308,-14.06025 6.56676,-13.96657 0.0937,0.0937 -0.59176,4.74823 -1.5232,10.34347 -0.93144,5.59523 -1.47724,10.38942 -1.2129,10.65376 0.37387,0.37388 24.60879,-11.70891 26.12427,-13.02476 1.33792,-1.16167 -12.20345,-24.2014 -17.98599,-30.60198 -7.06229,-7.8171 -20.75366,-14.27308 -31.10463,-14.66696 -5.19419,-0.19766 -5.25754,-0.22741 -5.25914,-2.47038 -0.002,-2.22041 -0.0763,-2.2587 -3.40161,-1.74156 -6.89808,1.07277 -6.2,-3.66016 -6.2,42.0356 v 40.7159 l 9.4,-4.42549 c 5.17,-2.43403 11.38,-5.39044 13.8,-6.56982 z m -14.95656,-73.78267 c 3.43388,-0.82862 8.11388,-2.50897 10.4,-3.73412 3.7908,-2.03152 4.17117,-2.49118 4.32265,-5.22382 l 0.1661,-2.9963 -4.04281,2.04864 c -7.65858,3.88091 -15.1785,5.34234 -27.48938,5.34234 -12.39504,0 -20.68235,-1.63089 -27.41842,-5.39574 -1.97071,-1.10146 -3.68177,-2.00264 -3.80235,-2.00264 -0.12058,0 -0.21924,1.26592 -0.21924,2.81316 0,2.4822 0.41749,3.05782 3.54864,4.8928 10.58168,6.20128 29.12766,7.9735 44.53481,4.25568 z m -29.23273,-1.53569 c -6.91276,-1.25922 -19.0054,-5.89793 -17.99897,-6.90436 0.20173,-0.20175 2.16991,0.53885 4.37371,1.64576 7.51733,3.77574 13.18979,4.81837 26.21455,4.81837 12.95921,0 18.79452,-1.05448 26.37102,-4.76537 2.18406,-1.06974 4.10986,-1.80614 4.27954,-1.63645 0.58308,0.58308 -7.54198,4.28569 -12.29412,5.60246 -5.50391,1.52508 -25.07481,2.30903 -30.94573,1.23959 z m 30.53008,-5.71311 c 3.30067,-0.84417 6.37427,-1.93638 6.83021,-2.42714 0.60057,-0.64641 0.27064,-0.76141 -1.19738,-0.41733 -11.14185,2.61148 -35.10843,2.63109 -47.14725,0.0386 -3.56613,-0.76795 -0.0752,1.17399 4.62178,2.57103 10.01935,2.98008 25.76692,3.08033 36.89264,0.23485 z m 6.29433,-4.24152 c 6.82795,-1.72104 9.97356,-3.48285 12.98247,-7.27133 5.90951,-7.44057 8.10099,-15.34252 8.09061,-29.17286 -0.0114,-15.14779 -3.72121,-25.02388 -13.12332,-34.93599 -8.9129,-9.39635 -19.38681,-13.93738 -32.18488,-13.95395 -17.33654,-0.0225 -32.63574,9.79729 -40.30991,25.87281 -3.915913,8.20288 -4.893857,12.8616 -4.876209,23.22937 0.02336,13.70748 2.847224,23.22503 8.810409,29.69432 6.11646,6.63557 15.49546,8.55663 39.57571,8.10611 11.07296,-0.20716 17.55051,-0.69016 21.03512,-1.56848 z m -32.09222,-6.91589 c -10.17489,-1.18263 -22.39909,-5.87387 -27.51553,-10.55952 -5.32616,-4.87772 -7.262769,-23.58502 -3.558384,-34.37337 2.1044,-6.12869 4.040656,-8.10431 11.535364,-11.76988 11.55714,-5.65247 28.79037,-7.47312 42.19565,-4.45787 7.64935,1.72058 18.41493,6.84124 21.10559,10.03891 3.30792,3.93123 4.88769,10.38462 4.88769,19.96629 0,9.46747 -1.57659,16.03128 -4.75905,19.81343 -2.39911,2.85117 -9.50141,6.69938 -16.43423,8.90449 -4.60152,1.4636 -17.55055,3.43732 -20.8,3.17038 -0.66,-0.0542 -3.6557,-0.384 -6.6571,-0.73286 z m 23.8571,-2.74324 c 5.70989,-1.51536 14.18356,-5.35211 17.63572,-7.9852 6.5808,-5.01943 8.07296,-27.73121 2.47524,-37.67528 -2.13907,-3.79995 -10.10898,-8.29561 -19.2917,-10.88204 -9.17901,-2.58538 -24.53246,-2.58499 -33.59118,8e-4 -6.84352,1.95352 -14.45105,5.65515 -17.57779,8.55292 -4.39032,4.06881 -6.607184,20.2412 -4.110496,29.98675 0.723976,2.82593 1.933688,6.19411 2.688256,7.48483 2.45876,4.20582 14.42317,9.70564 25.49974,11.72175 5.47888,0.99724 20.58558,0.30459 26.27221,-1.20458 z"
         id="path202" />
    </g>
  </g>
</svg>
